<svg width="495" height="239" viewBox="0 0 495 239" fill="none" xmlns="http://www.w3.org/2000/svg">
<path d="M238.062 150.637C236.891 160.012 234.986 168.41 232.35 175.832C229.713 183.156 226.539 189.699 222.828 195.461C222.828 198.586 222.828 201.857 222.828 205.275C222.926 208.693 223.023 212.111 223.121 215.529C223.219 218.85 223.365 222.072 223.561 225.197C223.756 228.322 224 231.105 224.293 233.547L190.455 238.527L184.449 227.248C175.562 230.959 166.48 233.498 157.203 234.865C148.023 236.33 139.283 237.062 130.982 237.062C113.502 237.062 97.4863 234.572 82.9355 229.592C68.3848 224.611 55.543 217.141 44.4102 207.18C33.2773 197.219 23.9512 184.768 16.4316 169.826C9.00977 154.787 3.6875 137.307 0.464844 117.385C2.71094 118.166 5.10352 118.898 7.64258 119.582C10.1816 120.266 12.7207 120.852 15.2598 121.34C17.0176 101.516 22.1934 84.1328 30.7871 69.1914C39.3809 54.1523 50.5137 41.6035 64.1855 31.5449C77.9551 21.3887 93.8242 13.7715 111.793 8.69336C129.859 3.51758 149.244 0.929688 169.947 0.929688C179.42 0.929688 189.527 1.41797 200.27 2.39453C211.109 3.37109 222.73 4.98242 235.133 7.22852C232.301 16.1152 230.152 25.0508 228.688 34.0352C227.32 42.9219 226.637 51.8086 226.637 60.6953C226.637 70.0703 227.369 79.3477 228.834 88.5273C223.072 84.2305 217.311 80.666 211.549 77.834C205.787 74.9043 200.123 72.6094 194.557 70.9492C189.088 69.1914 183.717 67.9707 178.443 67.2871C173.17 66.5059 168.141 66.1152 163.355 66.1152C154.273 66.1152 144.996 67.3359 135.523 69.7773C126.051 72.2188 117.066 75.832 108.57 80.6172C100.172 85.3047 92.6035 91.1152 85.8652 98.0488C79.2246 104.885 74.1465 112.746 70.6309 121.633C74.6348 121.047 78.4434 120.363 82.0566 119.582C85.6699 118.703 89.2832 117.678 92.8965 116.506C92.3105 120.803 92.0176 124.807 92.0176 128.518C92.0176 138.283 93.6777 146.779 96.998 154.006C100.318 161.232 104.908 167.238 110.768 172.023C116.627 176.711 123.512 180.227 131.422 182.57C139.43 184.914 148.072 186.086 157.35 186.086C158.912 186.086 160.475 186.086 162.037 186.086C163.6 186.086 165.162 185.988 166.725 185.793C162.818 174.855 159.596 163.869 157.057 152.834C154.518 141.799 152.32 129.982 150.465 117.385C155.152 118.264 159.742 118.947 164.234 119.436C168.727 119.924 173.17 120.168 177.564 120.168C187.037 120.168 196.266 119.143 205.25 117.092C214.234 115.041 223.463 112.062 232.936 108.156C228.248 126.516 225.172 144.484 223.707 162.062C226.148 160.402 228.492 158.645 230.738 156.789C233.082 154.836 235.523 152.785 238.062 150.637ZM494.703 15.1387C483.863 30.2754 473.854 45.9492 464.674 62.1602C455.494 78.3711 447.242 95.0215 439.918 112.111C432.594 129.201 426.295 146.73 421.021 164.699C415.748 182.57 411.598 200.783 408.57 219.338C399.195 218.166 390.113 217.58 381.324 217.58C371.852 217.58 362.428 218.264 353.053 219.631C343.678 220.998 334.303 223 324.928 225.637C321.314 209.133 316.676 191.896 311.012 173.928C305.348 155.861 298.756 137.893 291.236 120.021C283.814 102.053 275.514 84.6211 266.334 67.7266C257.154 50.7344 247.145 35.1094 236.305 20.8516C246.852 22.0234 257.789 22.6094 269.117 22.6094C281.129 22.6094 292.945 21.6816 304.566 19.8262C316.285 17.873 327.027 14.5039 336.793 9.71875C337.867 22.3164 339.039 34.5723 340.309 46.4863C341.676 58.3027 343.385 69.9238 345.436 81.3496C347.486 92.7754 350.074 104.055 353.199 115.188C356.422 126.32 360.377 137.453 365.064 148.586C375.709 126.516 383.375 104.299 388.062 81.9355C392.75 59.4746 395.094 36.6719 395.094 13.5273C413.16 16.5547 431.227 18.0684 449.293 18.0684C456.91 18.0684 464.479 17.8242 471.998 17.3359C479.518 16.75 487.086 16.0176 494.703 15.1387Z" fill="#CA2732"/>
</svg>
